# xmcd CD database file
#
# Track frame offsets:
#	182
#	27450
#	55587
#	87167
#	109502
#
# Disc length: 2465 seconds
#
# Revision: 0
# Processed by: cddbd v1.5.1PL0 Copyright (c) Steve Scherf et al.
# Submitted via: CDex 1.51
#
DISCID=32099f05
DTITLE=Tubby Hayes - 200%proof
DYEAR=1900
DGENRE=Jazz
TTITLE0=The Inner Splurge
TTITLE1=Octuple Blast
TTITLE2=Conversations at Dawn
TTITLE3=Members Only
TTITLE4=200 Percent Proof
EXTD=
EXTT0=
EXTT1=
EXTT2=
EXTT3=
EXTT4=
PLAYORDER=
